<?xml version="1.0" encoding="UTF-8" standalone="no"?>
<!-- Generator: Adobe Illustrator 19.0.0, SVG Export Plug-In . SVG Version: 6.00 Build 0)  -->

<svg
   xmlns:dc="http://purl.org/dc/elements/1.1/"
   xmlns:cc="http://creativecommons.org/ns#"
   xmlns:rdf="http://www.w3.org/1999/02/22-rdf-syntax-ns#"
   xmlns:svg="http://www.w3.org/2000/svg"
   xmlns="http://www.w3.org/2000/svg"
   xmlns:sodipodi="http://sodipodi.sourceforge.net/DTD/sodipodi-0.dtd"
   xmlns:inkscape="http://www.inkscape.org/namespaces/inkscape"
   version="1.1"
   id="Layer_1"
   x="0px"
   y="0px"
   viewBox="0 0 126.33 126.33"
   style="enable-background:new 0 0 126.33 126.33;"
   xml:space="preserve"
   sodipodi:docname="logo-lavender.svg"
   inkscape:version="0.92.3 (2405546, 2018-03-11)"><metadata
   id="metadata3882"><rdf:RDF><cc:Work
       rdf:about=""><dc:format>image/svg+xml</dc:format><dc:type
         rdf:resource="http://purl.org/dc/dcmitype/StillImage" /><dc:title></dc:title></cc:Work></rdf:RDF></metadata><defs
   id="defs3880" /><sodipodi:namedview
   pagecolor="#ffffff"
   bordercolor="#666666"
   borderopacity="1"
   objecttolerance="10"
   gridtolerance="10"
   guidetolerance="10"
   inkscape:pageopacity="0"
   inkscape:pageshadow="2"
   inkscape:window-width="1293"
   inkscape:window-height="713"
   id="namedview3878"
   showgrid="false"
   inkscape:zoom="4.2111928"
   inkscape:cx="62.927539"
   inkscape:cy="63.165001"
   inkscape:window-x="67"
   inkscape:window-y="27"
   inkscape:window-maximized="1"
   inkscape:current-layer="g3843" />
<g
   id="g3845">
	<g
   id="g3843"
   style="display:inline">
		<g
   id="g3841"
   style="fill:#e6e6fa;fill-opacity:1">
			<path
   d="M 67.146,58.112 C 61.945,52.249 53.333,47.509 45.462,46.478 40.967,45.889 36.664,46.41 32.445,47.429 c -0.933,0.015 -1.964,0.13 -2.89,0.217 -0.24,-0.521 -0.623,-0.567 -1.326,-0.305 -0.306,0.114 -0.615,0.312 -0.92,0.538 -3.667,0.569 -7.525,2.354 -10.588,4.205 C 9.237,56.61 5.344,64.245 3.975,72.63 c -0.081,0.117 -0.168,0.225 -0.248,0.344 -0.101,0.15 -0.002,0.324 0.139,0.396 -0.037,0.255 -0.08,0.509 -0.112,0.765 -0.707,5.585 -2.608,10.753 -3.581,16.21 -0.655,3.673 0.575,5.321 3.215,7.664 2.525,2.242 6.357,3.597 9.771,3.135 2.437,-0.33 4.799,-1.287 7.266,-1.497 1.499,-0.127 2.865,0.017 4.247,0.086 1.202,0.499 2.572,0.427 3.861,0.612 1.653,0.237 2.789,0.16 4.34,-0.55 0.09,-0.041 0.167,-0.092 0.243,-0.144 0.436,3.912 -0.078,7.97 -0.779,11.77 -0.528,2.867 -1.113,5.247 0.611,7.801 0.569,0.842 1.312,1.639 2.159,2.279 -0.364,0.51 -0.375,1.271 0.308,1.579 4.625,2.086 10.593,0.988 15.268,-0.754 3.889,-1.449 7.997,-5.886 8.932,-10.049 0.891,-3.965 -1.855,-7.764 -3.968,-10.808 -1.194,-1.721 -2.142,-3.469 -2.939,-5.395 0.323,-0.114 0.633,-0.251 0.904,-0.371 0.19,-0.084 0.399,-0.183 0.61,-0.291 0.352,0.307 0.875,0.438 1.322,0.179 1.791,-1.033 3.819,-1.292 5.7,-2.091 2.135,-0.907 4.051,-2.284 5.918,-3.639 2.793,-2.029 6.451,-4.343 6.684,-8.136 C 74.111,77.406 71.272,73.257 70.781,69.01 70.315,64.981 69.903,61.219 67.146,58.112 Z M 13.42,58.154 c 0.53,-0.273 1.03,-0.54 1.442,-0.814 1.828,-1.217 3.734,-2.333 5.505,-3.632 1.122,-0.822 2.248,-1.597 3.392,-2.354 0.369,-0.132 0.739,-0.255 1.109,-0.372 0.763,-0.105 1.523,-0.216 2.278,-0.335 -1.415,1.083 -2.907,2.094 -4.414,3.005 -1.847,1.117 -3.323,2.58 -5.038,3.88 -2.269,1.719 -5.385,3.303 -7.641,5.392 0.917,-1.725 2.042,-3.318 3.367,-4.77 z M 6.838,75.879 c 1.398,-1.078 2.738,-2.294 4.015,-3.573 -0.546,0.897 -0.743,1.85 0.206,2.412 0.028,0.016 0.057,0.024 0.085,0.036 -1.242,1.439 -2.477,2.909 -3.585,4.432 -0.653,0.896 -1.078,1.882 -1.484,2.879 0.342,-2.05 0.572,-4.121 0.763,-6.186 z m 25.506,20.609 c -0.263,-0.062 -0.546,-0.072 -0.851,0.035 -0.712,0.25 -1.25,0.461 -2.012,0.456 -0.207,-0.001 -0.41,-0.02 -0.615,-0.036 -0.093,-0.069 -0.199,-0.122 -0.314,-0.165 0.074,-0.93 0.641,-1.938 1.313,-2.885 0.013,0.074 0.031,0.145 0.033,0.226 0.002,0.086 0.131,0.108 0.153,0.021 0.058,-0.226 0.08,-0.429 0.085,-0.622 0.095,-0.128 0.192,-0.254 0.288,-0.378 0.87,0.817 1.563,1.86 2.003,3.126 -0.029,0.073 -0.055,0.148 -0.083,0.222 z M 26.365,85.869 c -0.251,0.349 -0.503,0.702 -0.761,1.06 -0.485,0.672 -1.033,1.334 -1.587,2.002 -0.207,-0.098 -0.426,-0.182 -0.676,-0.231 -0.998,-0.193 -1.867,0.072 -2.809,0.412 -1.118,0.404 -2.209,0.903 -3.282,1.442 0.372,-0.576 0.654,-1.287 0.981,-1.68 0.009,-0.012 0.011,-0.025 0.019,-0.037 1.304,-1.035 2.585,-2.068 3.89,-2.845 0.443,-0.264 0.919,-0.513 1.393,-0.762 0.951,0.065 1.903,0.298 2.832,0.639 z m -0.72,-1.666 c 0.218,-0.097 0.432,-0.197 0.655,-0.293 0.048,0.029 0.104,0.051 0.177,0.049 0.451,-0.01 0.909,-0.042 1.363,-0.039 -0.178,0.219 -0.35,0.441 -0.52,0.663 -0.536,-0.181 -1.097,-0.307 -1.675,-0.38 z m -2.009,6.814 c 1.292,-0.131 2.567,-0.008 3.745,0.363 -0.001,0.002 -0.002,0.004 -0.004,0.006 -0.34,-0.036 -0.683,-0.051 -1.009,-0.05 -1.146,0.003 -2.349,0.134 -3.415,0.579 0.226,-0.3 0.457,-0.597 0.683,-0.898 z m 1.451,-1.915 c 0.248,-0.327 0.494,-0.658 0.744,-0.983 0.478,-0.621 0.896,-1.279 1.324,-1.932 0.903,0.392 1.776,0.867 2.598,1.369 -0.357,0.516 -0.7,1.042 -1.03,1.577 -1.207,-0.206 -2.448,-0.225 -3.636,-0.031 z m 10.354,-6.139 c 0.27,0.314 0.527,0.631 0.772,0.957 -0.461,0.611 -0.937,1.211 -1.422,1.803 -0.459,-0.505 -1.05,-0.93 -1.532,-1.198 0.596,-0.676 1.208,-1.339 1.835,-1.989 0.112,0.139 0.224,0.283 0.347,0.427 z M 35.209,81 c 0.143,-0.035 0.283,-0.063 0.426,-0.097 -0.084,0.081 -0.165,0.166 -0.248,0.248 -0.051,-0.042 -0.094,-0.095 -0.148,-0.133 -0.01,-0.007 -0.02,-0.011 -0.03,-0.018 z m -2.714,3.151 c -1.041,-0.455 -2.124,-0.697 -3.227,-0.809 0.208,-0.267 0.423,-0.537 0.645,-0.803 1.154,-0.392 2.318,-0.747 3.482,-1.065 0.147,0.039 0.292,0.082 0.411,0.111 0.314,0.077 0.544,0.224 0.75,0.396 -0.705,0.707 -1.392,1.43 -2.061,2.17 z m -1.166,0.878 c 0.093,0.036 0.193,0.078 0.291,0.118 -0.44,0.518 -0.868,1.046 -1.277,1.591 -0.57,-0.822 -1.361,-1.426 -2.268,-1.852 0.066,-0.085 0.125,-0.174 0.194,-0.258 0.143,-0.175 0.31,-0.391 0.486,-0.62 0.12,0.022 0.241,0.035 0.359,0.069 0.762,0.219 1.472,0.665 2.215,0.952 z m -2.785,-1.938 c -0.055,0.061 -0.104,0.124 -0.158,0.186 -0.161,-0.007 -0.322,-0.011 -0.483,-0.014 0.242,-0.093 0.483,-0.184 0.728,-0.274 -0.029,0.034 -0.057,0.069 -0.087,0.102 z m 2.09,4.797 c 0.075,-0.054 0.135,-0.129 0.151,-0.226 0.138,-0.2 0.261,-0.409 0.405,-0.605 0.389,-0.53 0.808,-1.036 1.227,-1.542 0.589,0.303 1.165,0.69 1.582,1.182 -0.312,0.383 -0.625,0.766 -0.929,1.159 -0.539,0.696 -1.043,1.42 -1.541,2.149 -0.586,-0.281 -1.209,-0.498 -1.849,-0.667 0.303,-0.493 0.63,-0.971 0.954,-1.45 z m 25.064,4.402 c -0.081,-0.085 -0.165,-0.168 -0.273,-0.235 -0.481,-0.298 -1.024,-0.317 -1.56,-0.19 1.326,-0.785 1.847,-2.353 3.152,-3.199 0.192,-0.125 0.847,-0.512 1.461,-0.82 -0.405,0.595 0.565,1.14 0.991,0.562 0.28,-0.379 0.557,-0.728 0.905,-1.046 0.231,-0.211 0.235,-0.643 0,-0.852 -0.855,-0.763 -2.693,0.361 -3.519,0.762 -1.726,0.838 -2.723,2.583 -3.737,4.139 -0.177,0.272 0.026,0.543 0.284,0.599 -0.586,0.231 -1.138,0.607 -1.55,0.978 -0.04,0.035 -0.081,0.076 -0.121,0.114 -0.329,-1.767 -0.034,-3.151 0.603,-4.473 0.445,-0.274 0.954,-0.472 1.406,-0.747 0.749,-0.456 1.356,-1.095 2.041,-1.634 1.295,-1.019 4.354,-3.513 6,-2.294 0.369,0.273 0.747,-0.297 0.469,-0.607 -1.734,-1.934 -4.406,0.029 -6.075,1.102 -0.8,0.515 -1.539,1.097 -2.289,1.665 0.414,-0.588 0.858,-1.2 1.313,-1.864 0.142,-0.207 -0.145,-0.503 -0.353,-0.353 -5.818,4.21 -7.718,10.768 -3.739,17.13 2.9,4.636 7.138,8.541 2.973,13.924 -3.111,4.021 -8.903,5.406 -14.199,5.86 -0.079,-0.095 -0.167,-0.186 -0.278,-0.263 -1.264,-0.877 -2.172,-1.726 -2.804,-2.692 0.706,-2.669 2.023,-5.324 3.455,-7.534 0.973,-1.503 2.017,-2.956 2.956,-4.482 0.882,-1.431 1.498,-3.244 2.519,-4.572 0.201,-0.261 -0.255,-0.617 -0.46,-0.355 -1.169,1.49 -1.894,3.348 -2.93,4.947 -1.183,1.827 -2.546,3.538 -3.679,5.396 -0.856,1.404 -1.925,3.268 -2.562,5.153 -0.371,-1.109 -0.492,-2.402 -0.384,-4.055 0.076,-1.168 0.278,-2.315 0.481,-3.463 0.094,0.286 0.326,0.48 0.782,0.495 0.286,0.009 0.33,-0.351 0.134,-0.495 -1.62,-1.189 6.558,-11.348 7.122,-12.121 0.227,-0.311 -0.286,-0.6 -0.513,-0.3 -2.353,3.12 -4.843,6.108 -6.678,9.58 -0.126,0.238 -0.368,0.688 -0.571,1.181 0.124,-0.81 0.222,-1.625 0.248,-2.454 0.646,-0.676 0.865,-1.426 1.294,-2.265 0.626,-1.223 1.576,-2.219 2.282,-3.39 0.664,-1.101 1.038,-2.341 1.685,-3.454 0.757,-1.303 1.618,-2.521 2.306,-3.866 0.21,-0.41 -0.404,-0.774 -0.621,-0.363 -1.221,2.317 -2.604,4.589 -3.872,6.877 -0.631,1.138 -1.591,2.072 -2.204,3.216 -0.336,0.628 -0.56,1.296 -0.84,1.941 0.022,-1.413 10e-4,-3.009 -0.139,-4.577 0.258,-0.669 0.496,-1.352 0.765,-2.032 1.146,-2.894 2.591,-5.739 3.89,-8.574 0.179,-0.39 -0.399,-0.732 -0.58,-0.339 -1.181,2.561 -2.38,5.118 -3.549,7.682 -0.26,0.569 -0.489,1.145 -0.713,1.721 -0.209,-1.373 -0.535,-2.666 -1.054,-3.71 -0.061,-0.122 -0.14,-0.23 -0.207,-0.348 0.301,-0.531 0.608,-1.06 0.924,-1.584 1.147,-1.903 2.635,-3.847 3.296,-5.98 0.163,-0.527 -0.625,-0.723 -0.814,-0.224 -0.931,2.459 -2.568,4.625 -4.026,6.869 -0.593,-0.748 -1.312,-1.386 -2.134,-1.891 0.679,-0.961 1.395,-1.897 2.12,-2.827 0.008,0.027 0.022,0.05 0.029,0.077 0.086,0.346 0.627,0.442 0.792,0.104 0.207,-0.422 0.167,-0.843 0.005,-1.245 0.476,-0.615 0.947,-1.234 1.401,-1.863 0.256,0.443 0.488,0.886 0.893,1.215 0.284,0.231 0.809,0.109 0.787,-0.326 -0.038,-0.74 -0.392,-1.45 -0.846,-2.087 0.261,-0.393 0.515,-0.791 0.756,-1.196 0.284,-0.476 -0.456,-0.907 -0.742,-0.434 -0.187,0.31 -0.398,0.601 -0.6,0.898 -0.153,-0.173 -0.306,-0.34 -0.457,-0.494 -0.202,-0.207 -0.398,-0.43 -0.602,-0.646 0.353,-0.358 0.704,-0.716 1.06,-1.07 0.483,-0.103 0.95,-0.19 1.419,-0.278 0.017,0.007 0.031,0.02 0.05,0.022 1.067,0.133 1.254,2.04 1.271,2.786 0.011,0.505 0.081,0.9 0.366,1.317 0.198,0.29 0.358,0.699 0.623,0.923 0.089,0.075 0.212,0.13 0.331,0.087 0.036,-0.013 0.073,-0.026 0.109,-0.039 0.262,-0.094 0.391,-0.281 0.419,-0.551 0.072,-0.672 -0.457,-1.095 -0.525,-1.737 -0.075,-0.711 -0.116,-1.286 -0.435,-1.942 -0.206,-0.424 -0.485,-0.839 -0.825,-1.114 1.74,-0.285 3.489,-0.495 5.244,-0.62 -0.106,0.203 -0.202,0.416 -0.289,0.641 -0.223,0.579 -0.378,1.141 -0.739,1.659 -0.268,0.385 -0.621,0.695 -0.85,1.109 -0.443,0.801 -0.788,3.6 0.889,3.09 0.185,-0.056 0.339,-0.314 0.201,-0.493 -0.773,-1.006 0.087,-2.122 0.697,-2.956 0.574,-0.785 0.69,-2.134 1.323,-2.891 0.25,0.087 0.544,-0.025 0.665,-0.26 1.313,-0.048 2.628,-0.044 3.943,0.01 -0.935,0.597 -1.778,1.433 -2.532,2.105 -1.373,1.224 -2.685,3.347 -2.229,5.255 0.084,0.353 0.586,0.323 0.686,0 0.513,-1.676 1.012,-3.231 2.357,-4.442 1.191,-1.073 2.584,-2.689 4.3,-2.649 0.116,0.003 0.203,-0.031 0.277,-0.078 0.68,0.067 1.383,0.135 2.096,0.211 -3.235,0.408 -5.712,2.41 -8.163,5.073 -0.359,0.39 0.186,0.931 0.58,0.58 1.444,-1.287 2.87,-2.667 4.59,-3.583 1.923,-1.025 4.092,-1.063 6.194,-1.439 0.093,-0.017 0.142,-0.087 0.169,-0.168 1.235,0.22 2.446,0.509 3.569,0.92 1.625,0.595 2.475,1.661 4.188,1.691 0.168,0.003 0.297,-0.243 0.149,-0.36 -3.777,-2.97 -7.105,-5.201 -12.089,-6.055 -4.903,-0.84 -9.903,-0.477 -14.79,0.374 -5.652,0.984 -11.25,3.164 -16.487,5.474 -5.095,2.248 -8.518,6.461 -12.425,10.215 -0.147,0.141 0.005,0.38 0.194,0.333 1.818,-0.453 3.493,-1.515 5.109,-2.724 -0.218,0.307 -0.473,0.578 -0.822,0.759 -0.208,0.108 -0.184,0.352 -0.048,0.49 -1.167,0.657 -2.305,1.363 -3.391,2.115 -0.177,0.123 -0.073,0.413 0.151,0.357 2.792,-0.703 5.261,-2.285 7.927,-3.331 0.63,-0.247 1.178,-0.366 1.718,-0.394 -0.683,0.371 -1.312,0.826 -1.845,1.387 -0.176,0.185 0.045,0.422 0.256,0.331 0.527,-0.226 1.066,-0.398 1.608,-0.534 -0.319,0.46 -0.604,0.935 -0.857,1.423 -1.661,0.867 -3.406,1.955 -4.575,3.21 -0.234,0.252 0.064,0.668 0.374,0.485 1.224,-0.724 2.532,-1.199 3.79,-1.847 1.259,-0.648 2.308,-1.519 3.721,-1.825 0.467,-0.101 1.255,-0.218 2.08,-0.236 -0.622,0.993 -1.223,1.911 -1.075,3.142 0.04,0.333 0.567,0.485 0.645,0.087 0.217,-1.116 0.833,-2.178 1.463,-3.191 0.647,0.07 1.236,0.243 1.635,0.57 -0.623,0.85 -1.626,2.26 -1.825,3.49 C 24.38,96.007 21.467,95.604 18.225,96.22 13.86,97.049 9.262,98.489 5.654,94.933 2.641,91.964 4.428,89.258 5.323,85.719 5.386,85.471 5.439,85.22 5.497,84.971 c 1.161,-1.315 1.493,-3.04 2.425,-4.533 1.457,-2.333 3.517,-4.534 5.332,-6.606 3.558,-4.063 7.364,-7.935 11.022,-11.911 0.37,-0.403 -0.228,-1.005 -0.602,-0.602 -2.991,3.214 -6.111,6.336 -9.09,9.57 -0.044,-0.217 -0.126,-0.427 -0.288,-0.589 -0.411,-0.411 -0.938,-0.39 -1.391,-0.146 0.471,-0.515 0.935,-1.031 1.386,-1.544 2.676,-3.051 5.612,-5.827 8.467,-8.708 0.362,-0.365 -0.196,-0.922 -0.563,-0.563 -2.906,2.833 -5.886,5.553 -8.585,8.59 -0.229,0.258 -0.471,0.508 -0.712,0.758 0.043,-0.101 0.086,-0.201 0.102,-0.324 0.105,-0.826 1.322,-1.576 1.864,-2.154 0.545,-0.581 1.387,-1.325 1.065,-2.213 -0.091,-0.25 -0.429,-0.481 -0.689,-0.28 -1.556,1.201 -4.441,2.259 -4.343,4.647 0.036,0.884 0.809,1.169 1.411,0.924 -1.753,1.734 -3.686,3.34 -5.34,5.149 0.027,-0.314 0.055,-0.628 0.081,-0.941 0.111,-1.297 0.304,-2.552 0.563,-3.772 0.187,-0.22 0.377,-0.438 0.574,-0.65 1.56,-1.681 3.505,-2.949 5.27,-4.399 1.844,-1.515 3.645,-3.093 5.341,-4.773 1.694,-1.678 3.611,-3.007 5.442,-4.518 0.371,-0.306 -0.157,-0.818 -0.525,-0.525 -1.744,1.39 -3.596,2.566 -5.209,4.116 -1.831,1.761 -3.732,3.444 -5.707,5.043 -1.645,1.332 -3.265,2.633 -4.778,4.039 0.296,-1.068 0.654,-2.102 1.072,-3.099 3.322,-2.572 6.905,-4.821 10.139,-7.506 3.004,-2.493 6.348,-4.541 9.344,-7.047 0.046,-0.008 0.093,-0.015 0.138,-0.023 4.849,-0.926 9.182,-1.328 14.091,-0.773 7.06,0.797 15.132,4.091 20.027,9.353 1.482,1.592 2.731,2.907 3.488,4.987 0.855,2.347 0.549,4.863 0.931,7.268 0.455,2.864 2.363,5.525 2.529,8.388 0.452,7.785 -9.199,8.814 -14.081,12.686 z"
   id="path3827"
   inkscape:connector-curvature="0"
   style="fill:#e6e6fa;fill-opacity:1" />
			<path
   d="m 123.416,85.433 c -2.298,-3.174 -2.48,-6.722 -4.052,-10.224 -1.237,-2.756 -3.106,-5.266 -5.404,-7.204 -1.886,-1.591 -3.593,-2.646 -5.891,-3.179 -4.379,-2.035 -11.008,0.794 -14.358,3.613 -1.06,0.892 -2.042,1.86 -2.979,2.874 0.509,-3.231 0.284,-6.692 0.167,-9.745 -0.104,-2.711 -0.547,-5.406 -1.013,-8.093 -0.549,-3.165 -1.844,-5.983 -2.683,-9.003 0.176,-0.036 0.354,-0.058 0.53,-0.096 1.755,-0.385 3.686,-0.716 5.637,-1.102 0.542,0.843 2.128,0.885 2.36,-0.309 -0.154,0.796 6.061,-1.039 6.679,-1.245 2.039,-0.68 4.382,-1.159 6.343,-2.042 2.684,-1.208 5.538,-3.444 7.267,-5.847 5.177,-7.193 -1.12,-12.269 -6.007,-17.112 -3.103,-3.075 -5.476,-6.242 -9.289,-8.52 C 96.731,5.815 92.865,3.895 88.256,3.018 84.223,2.251 79.359,1.871 74.659,2.278 71.026,1.791 66.967,3.287 63.716,4.531 c -1.615,0.618 -3.195,1.352 -4.733,2.17 -1.075,0.428 -2.15,0.855 -3.235,1.253 -1.017,0.373 -2.666,0.501 -3.507,1.243 -0.77,0.679 -0.792,1.37 0.167,1.667 0.32,0.099 0.429,-0.369 0.135,-0.49 -0.811,-0.333 2.412,-1.396 2.517,-1.428 0.125,-0.038 0.247,-0.091 0.372,-0.133 -2.463,1.638 -4.754,3.531 -6.782,5.65 -1.795,1.876 -3.421,3.842 -5.024,5.818 -0.085,0.053 -0.178,0.097 -0.259,0.153 -0.091,0.063 -0.11,0.176 -0.08,0.266 -1.671,2.065 -3.338,4.127 -5.144,6.105 -0.077,0.027 -0.153,0.057 -0.23,0.084 -0.166,0.059 -0.19,0.205 -0.135,0.319 -0.646,0.695 -1.307,1.381 -2.001,2.048 -2.843,2.733 -4.763,7.049 -1.647,10.25 1.605,1.648 3.605,2.374 5.795,2.836 3.012,0.636 6.032,1.606 9.077,2.013 6.532,0.873 13.498,1.106 20.095,1.138 1.541,0.007 3.089,0.024 4.639,0.026 0.307,1.427 0.755,2.825 1.219,4.207 1.29,3.839 2.174,7.678 3.022,11.6 1.518,7.021 2.236,14.615 2.096,21.794 -0.003,0.172 0.042,0.323 0.117,0.451 -3.116,3.001 -2.175,5.482 0.177,7.47 -0.941,2.424 -1.636,4.85 -2.369,7.349 -1.144,3.904 -3.018,7.641 -3.835,11.651 -0.83,4.072 -0.042,9.023 4.823,9.697 4.54,0.628 5.972,-2.994 6.85,-6.814 1.167,-5.076 3.899,-12.649 2.56,-17.967 2.169,0.512 4.386,0.699 6.798,0.918 0.884,0.08 1.774,0.144 2.664,0.209 -0.057,1.229 -0.235,2.416 -0.481,3.582 -0.238,0.258 -0.451,0.53 -0.612,0.83 -0.13,0.241 0.137,0.425 0.343,0.307 -0.924,3.605 -2.529,7.019 -3.991,10.653 -1.341,3.334 0.707,6.664 4.098,7.881 10.006,3.592 9.929,-16.433 9.591,-21.598 2.663,0.275 5.249,0.29 8.132,0.181 2.6,-0.098 6.22,-0.071 8.529,-1.426 4.96,-2.909 2.49,-7.551 -0.051,-11.061 z M 102.244,66.474 c 0.012,10e-4 0.023,0.003 0.035,0.004 -0.345,0.233 -0.799,0.349 -1.285,0.419 0.413,-0.152 0.828,-0.302 1.25,-0.423 z M 40.101,30.037 c 1.648,-1.576 2.91,-3.185 4.079,-4.858 0.403,-0.171 0.802,-0.336 1.192,-0.483 1.563,-0.586 3.14,-1.135 4.721,-1.673 -0.135,0.142 -0.252,0.298 -0.32,0.486 -0.157,0.254 -0.272,0.533 -0.325,0.827 -0.011,0.063 0.002,0.115 0,0.174 -0.918,-0.155 -1.973,-0.3 -2.601,0.48 -0.367,0.456 -0.265,0.942 0.036,1.227 -0.06,0.039 -0.122,0.073 -0.181,0.113 -1.979,1.308 -4.098,2.393 -6.175,3.534 -0.197,0.108 -0.39,0.209 -0.579,0.31 0.052,-0.046 0.106,-0.093 0.153,-0.137 z M 61.82,41.293 c -1.899,-0.154 -3.843,-0.17 -5.793,-0.197 1.212,-0.726 2.307,-1.722 3.466,-2.471 2.206,-1.426 4.454,-2.773 6.699,-4.137 0.468,-0.284 0.04,-1.021 -0.43,-0.735 -2.125,1.289 -4.295,2.514 -6.36,3.899 -1.558,1.045 -2.878,2.4 -4.443,3.425 -2.484,-0.046 -4.962,-0.163 -7.361,-0.642 0.71,0.126 3.355,-1.853 4.167,-2.212 1.356,-0.599 2.67,-1.203 3.967,-1.928 2.936,-1.64 5.892,-2.944 8.929,-4.357 0.429,-0.2 0.056,-0.829 -0.371,-0.634 -1.431,0.655 -2.942,1.098 -4.362,1.776 -1.863,0.89 -3.61,2.024 -5.435,2.987 -2.477,1.308 -5.604,2.01 -7.452,4.24 -0.342,-0.077 -0.686,-0.141 -1.024,-0.236 -1.363,-0.381 -2.752,-0.613 -4.128,-0.899 1.383,-0.922 3.056,-1.361 4.506,-2.182 2.016,-1.143 3.852,-2.393 6.005,-3.298 4.166,-1.752 8.223,-3.726 12.266,-5.744 0.437,-0.218 0.054,-0.869 -0.382,-0.654 -4.449,2.188 -8.978,4.121 -13.492,6.16 -1.969,0.889 -3.661,2.243 -5.584,3.211 -1.384,0.696 -2.82,1.129 -3.926,2.263 -0.028,0.029 -0.028,0.066 -0.039,0.101 -0.354,-0.08 -0.709,-0.158 -1.059,-0.252 -1.826,-0.493 -2.909,-1.271 -3.313,-2.328 0.526,-0.43 1.505,-0.679 2.048,-0.947 1.179,-0.582 2.231,-1.337 3.445,-1.858 1.947,-0.835 3.627,-1.88 5.489,-2.871 4.276,-2.274 9.041,-3.493 13.261,-5.915 0.308,-0.177 0.037,-0.626 -0.276,-0.472 -3.804,1.865 -8.043,3.113 -11.881,4.979 -0.089,-0.257 -0.315,-0.469 -0.681,-0.494 -0.702,-0.048 -1.372,0.088 -2.007,0.397 -0.268,0.131 -0.268,0.578 0,0.708 0.301,0.147 0.608,0.251 0.922,0.318 -0.329,0.186 -0.663,0.364 -0.982,0.565 -2.018,1.265 -4.264,1.964 -6.298,3.197 -0.897,0.544 -2.408,0.999 -3.184,1.853 -0.159,-0.998 0.187,-2.207 1.008,-3.63 0.167,-0.29 0.443,-0.584 0.755,-0.871 -0.108,0.205 -0.19,0.435 -0.227,0.715 -0.023,0.175 0.251,0.287 0.36,0.149 1.084,-1.373 3.186,-2.088 4.694,-2.904 1.675,-0.906 3.239,-1.931 4.846,-2.948 0.01,-0.007 0.022,-0.013 0.033,-0.019 0.124,0.036 0.254,0.068 0.366,0.107 0.393,0.138 0.784,0.214 1.204,0.197 0.527,-0.021 0.984,-0.389 1.047,-0.925 0.007,-0.057 -0.007,-0.121 -0.01,-0.182 0.281,-0.085 0.533,-0.439 0.675,-0.801 0.021,-0.009 0.033,-0.175 0.052,-0.175 0.002,0 0.004,0 0.006,0 -0.002,0 0.04,0.156 0.045,0.152 0.068,-0.002 0.136,0.071 0.204,0.073 0.263,0.006 0.525,0.077 0.785,0.006 0.397,-0.109 0.626,-0.376 0.866,-0.688 0.111,-0.144 0.161,-0.344 0.158,-0.553 2.169,-0.946 4.399,-1.783 6.489,-2.599 0.486,-0.19 0.277,-0.979 -0.218,-0.789 -2.165,0.831 -4.402,1.681 -6.589,2.636 -0.266,-0.318 -0.585,-0.534 -1.037,-0.561 0.626,-0.211 1.252,-0.422 1.878,-0.634 2.627,-0.889 5.269,-1.631 7.933,-2.389 2.803,-0.797 5.271,-2.45 7.949,-3.564 0.109,-0.045 0.064,-0.225 -0.05,-0.181 -2.571,0.993 -4.969,2.443 -7.638,3.174 -2.804,0.768 -5.595,1.428 -8.366,2.335 -3.106,1.017 -6.158,2.164 -9.205,3.317 1,-1.478 1.966,-3.006 3.088,-4.613 0.045,-0.064 0.095,-0.129 0.141,-0.193 1.073,-0.3 2.142,-0.618 3.194,-1.025 2.626,-1.017 5.184,-2.192 7.88,-3.021 2.774,-0.853 5.57,-1.633 8.344,-2.489 2.521,-0.778 5.479,-2.407 8.088,-2.586 0.394,-0.027 0.398,-0.643 0,-0.617 -2.413,0.155 -4.671,1.501 -6.964,2.191 -3.066,0.922 -6.141,1.8 -9.212,2.705 -2.853,0.841 -5.557,2.054 -8.328,3.12 -0.691,0.266 -1.45,0.475 -2.226,0.674 1.077,-1.4 2.315,-2.79 3.68,-4.125 3.525,-1.123 7.074,-2.111 10.62,-3.211 3.729,-1.156 8.52,-1.865 11.658,-4.316 0.287,-0.224 -0.096,-0.727 -0.393,-0.509 -1.855,1.363 -4.654,2.071 -6.852,2.77 -2.08,0.662 -4.206,1.176 -6.295,1.812 -2.259,0.688 -4.689,1.143 -7.006,1.849 C 57.494,9.85 61.42,7.309 65.541,5.692 71.062,4.478 77.806,5.401 83.239,5.74 c 7.589,0.473 16.035,4.138 21.033,9.992 4.148,4.859 14.433,11.249 7.008,17.642 -2.739,2.359 -6.397,3.957 -10.096,5.261 -1.481,0.176 -3.069,0.047 -4.493,0.206 -1.872,0.209 -3.678,0.703 -5.531,1.038 -4.697,0.848 -9.29,1.691 -14.084,1.824 -5.127,0.142 -10.168,0.003 -15.256,-0.41 z m 14.468,4.209 c 0.66,-0.01 1.319,-0.027 1.978,-0.051 -0.179,0.213 -0.362,0.424 -0.534,0.638 -0.238,0.298 -0.524,0.598 -0.816,0.9 -0.199,-0.509 -0.405,-1.01 -0.628,-1.487 z m 1.526,4.025 c -0.184,-0.573 -0.378,-1.145 -0.583,-1.71 0.068,-0.071 0.136,-0.142 0.199,-0.217 0.537,-0.638 0.987,-1.341 1.533,-1.975 0.063,-0.073 0.128,-0.144 0.19,-0.218 1.46,-0.07 2.916,-0.184 4.364,-0.355 -1.628,1.422 -3.33,2.768 -5.082,4.033 -0.212,0.153 -0.42,0.297 -0.621,0.442 z m 0.23,0.725 c 0.756,-0.678 1.692,-1.23 2.442,-1.808 1.279,-0.986 2.531,-2.003 3.737,-3.078 0.14,-0.125 0.131,-0.281 0.054,-0.401 0.013,-0.002 0.026,-0.003 0.039,-0.004 0.288,0.999 0.649,1.969 1.011,2.94 -0.015,0.008 -0.031,0.012 -0.046,0.024 -1.178,0.923 -2.364,1.819 -3.581,2.688 -0.972,0.693 -2.044,1.359 -2.875,2.223 -0.246,-0.821 -0.505,-1.694 -0.781,-2.584 z m 2.075,7.416 c 0.802,-0.009 0.795,-0.089 -0.021,-0.097 -0.27,-1.228 -0.57,-2.447 -0.942,-3.643 -0.049,-0.159 -0.1,-0.329 -0.15,-0.494 0.042,-0.005 0.085,-0.018 0.128,-0.045 1.208,-0.767 2.307,-1.745 3.458,-2.6 1.004,-0.746 2.016,-1.498 2.935,-2.35 0.457,1.231 0.895,2.471 1.171,3.777 0.604,2.861 1.115,5.886 1.413,8.799 0.473,4.624 0.037,9.057 -0.209,13.611 -1.605,1.988 -3.159,4.029 -4.841,5.946 -0.012,-0.764 -0.111,-1.567 -0.154,-2.343 -0.265,-4.813 -1.342,-9.437 -1.796,-14.205 -0.203,-2.128 -0.536,-4.257 -0.992,-6.356 z m 11.062,23.003 c -2.131,0.727 -4.064,1.802 -6.055,2.777 0.651,-0.806 1.271,-1.652 1.835,-2.497 1.38,0.062 2.75,-0.449 4.098,-1.1 -0.069,0.278 -0.027,0.576 0.122,0.82 z M 79.867,116.63 c -2.168,-0.671 -2.98,-3.853 -2.638,-5.744 0.201,-1.111 0.554,-2.223 0.871,-3.307 0.704,-2.406 1.69,-4.749 2.348,-7.161 0.697,-2.555 1.135,-5.777 0.954,-8.595 0.892,0.616 1.895,1.18 2.923,1.689 0.789,0.39 1.573,0.697 2.358,0.957 -1.253,3.666 -2.615,23.461 -6.816,22.161 z m 23.517,-11.041 c -0.033,2.389 -0.172,4.859 -0.922,7.152 -0.48,2.735 -2.399,3.573 -5.758,2.515 -0.615,-1.774 -0.489,-3.358 0.378,-4.752 0.892,-2.568 1.943,-4.732 2.147,-7.508 0.103,-1.395 0.033,-2.642 -0.109,-3.851 0.541,-0.418 1.087,-0.83 1.607,-1.274 0.348,-0.298 -0.156,-0.798 -0.503,-0.503 -0.368,0.314 -0.792,0.618 -1.219,0.929 -0.105,-0.714 -0.223,-1.426 -0.352,-2.151 1.278,0.088 2.559,0.166 3.842,0.239 -0.115,0.286 -0.001,0.685 0.338,0.753 0.45,0.091 0.891,0.169 1.33,0.243 -1.004,2.818 -0.739,5.261 -0.779,8.208 z m 14.568,-11.566 c -2.354,0.318 -4.685,0.602 -7.014,0.9 -0.09,-0.134 -0.2,-0.257 -0.353,-0.346 -5.03,-2.919 -10.647,-1.922 -16.19,-2.501 -3.411,-0.356 -6.186,-0.604 -9.192,-2.235 2.681,-1.846 5.597,-3.366 8.43,-4.952 0.352,-0.197 0.038,-0.731 -0.315,-0.54 -2.997,1.622 -6.031,3.152 -8.737,5.188 -0.978,-0.395 -2.175,-0.334 -2.599,-1.696 -0.499,-1.602 0.776,-1.798 1.756,-2.799 0.93,-0.333 1.796,-0.836 2.682,-1.346 1.843,-1.061 3.68,-1.871 5.711,-2.522 0.052,-0.017 0.105,-0.033 0.157,-0.05 0.749,0.032 1.775,0.096 2.226,-0.467 0.077,-0.097 0.129,-0.195 0.163,-0.295 2.911,-0.936 5.783,-1.933 8.479,-3.433 0.404,-0.225 0.042,-0.846 -0.363,-0.621 -2.617,1.456 -5.428,2.407 -8.265,3.298 -0.007,-0.009 -0.008,-0.017 -0.015,-0.026 -0.404,-0.505 -1.265,-0.506 -1.98,-0.477 1.118,-0.577 2.218,-1.13 3.293,-1.39 1.903,-0.46 3.55,-1.158 5.331,-1.946 1.322,-0.585 3.006,-0.856 4.063,-1.903 0.319,-0.316 -0.166,-0.797 -0.492,-0.492 -1.035,0.971 -3.009,1.326 -4.326,1.905 -1.82,0.8 -3.551,1.296 -5.46,1.815 -2.595,0.705 -4.828,2.099 -7.369,2.914 0.007,-0.011 0.015,-0.023 0.022,-0.034 0.961,-1.549 1.974,-2.808 3.099,-4.137 1.285,-0.385 2.594,-0.698 3.872,-1.113 3.331,-1.08 6.667,-2.247 9.94,-3.488 0.143,-0.054 0.089,-0.274 -0.064,-0.234 -4.343,1.144 -8.739,2.448 -13.007,3.966 0.089,-0.104 0.172,-0.202 0.262,-0.308 0.467,-0.547 0.877,-1.113 1.275,-1.676 4.258,-1.419 8.64,-2.665 12.652,-4.609 0.345,-0.167 0.044,-0.675 -0.3,-0.513 -3.614,1.705 -7.649,2.524 -11.439,3.845 0.719,-0.964 1.51,-1.864 2.622,-2.572 0.643,-0.409 1.381,-0.823 2.157,-1.218 0.068,-0.021 0.132,-0.049 0.201,-0.069 1.282,-0.381 2.727,-0.175 3.767,-1.073 0.083,-0.072 0.071,-0.174 0.025,-0.258 3.536,0.388 6.212,0.778 9.235,3.834 3.937,3.979 4.637,8.804 6.369,13.843 0.5,1.453 1.228,2.313 2.147,3.497 0.53,0.682 1.38,1.364 1.571,2.261 0.635,2.97 -1.864,3.781 -4.027,4.073 z"
   id="path3829"
   inkscape:connector-curvature="0"
   style="fill:#e6e6fa;fill-opacity:1" />
			<path
   d="m 92.043,82.065 -0.16,0.124 c 0.163,-0.137 0.161,-0.161 -0.006,-0.071 -0.104,0.031 -0.172,0.09 -0.264,0.138 -0.153,0.079 -0.301,0.172 -0.456,0.248 0.028,-0.013 -0.318,0.128 -0.385,0.151 -0.164,0.057 -0.334,0.094 -0.499,0.147 -0.339,0.109 -0.706,0.26 -1.02,0.433 -0.286,0.158 -0.293,0.613 0,0.769 0.672,0.356 1.391,0.64 2.168,0.623 1.114,-0.025 2.301,-0.993 1.747,-2.184 -0.228,-0.487 -0.665,-0.544 -1.125,-0.378 z"
   id="path3831"
   inkscape:connector-curvature="0"
   style="fill:#e6e6fa;fill-opacity:1" />
			<path
   d="m 9.43,83.822 c 0.879,-1.077 1.6,-2.355 2.426,-3.473 1.515,-2.05 3.204,-3.745 4.861,-5.662 1.622,-1.877 2.603,-4.182 4.569,-5.758 0.441,-0.354 -0.182,-0.96 -0.619,-0.619 -1.638,1.278 -2.5,2.923 -3.718,4.563 -1.395,1.879 -3.314,3.241 -4.677,5.141 -1.435,2.001 -2.794,4.127 -4.404,5.977 -1.183,1.358 -1.548,3.994 -3.01,4.927 -0.216,0.138 -0.082,0.511 0.181,0.428 1.391,-0.438 1.74,-1.885 2.368,-3.049 0.53,-0.983 1.329,-1.625 2.023,-2.475 z"
   id="path3833"
   inkscape:connector-curvature="0"
   style="fill:#e6e6fa;fill-opacity:1" />
			<path
   d="m 24.333,68.976 c -3.915,4.014 -7.763,8.019 -11.298,12.372 -1.591,1.959 -3.177,4.038 -4.396,6.253 -0.853,1.551 -2.202,3.252 -1.953,5.099 0.049,0.367 0.553,0.222 0.591,-0.08 0.253,-2.007 2.247,-4.756 3.347,-6.418 1.441,-2.177 3.061,-4.254 4.815,-6.183 3.164,-3.48 6.003,-7.265 9.181,-10.756 0.175,-0.192 -0.104,-0.475 -0.287,-0.287 z"
   id="path3835"
   inkscape:connector-curvature="0"
   style="fill:#e6e6fa;fill-opacity:1" />
			<path
   d="m 21.128,75.772 c -2.442,2.429 -4.179,5.465 -6.402,8.086 -1.703,2.007 -2.884,4.074 -3.051,6.762 -0.021,0.342 0.505,0.403 0.591,0.08 0.857,-3.223 2.561,-5.258 4.587,-7.82 1.688,-2.133 3.034,-4.478 4.971,-6.412 0.449,-0.448 -0.246,-1.144 -0.696,-0.696 z"
   id="path3837"
   inkscape:connector-curvature="0"
   style="fill:#e6e6fa;fill-opacity:1" />
			<path
   d="m 61.519,39.62 c -0.012,0.276 -0.137,0.519 -0.316,0.727 -0.276,0.319 0.073,0.843 0.469,0.607 0.517,-0.308 0.735,-0.736 0.762,-1.334 0.026,-0.588 -0.889,-0.587 -0.915,0 z"
   id="path3839"
   inkscape:connector-curvature="0"
   style="fill:#e6e6fa;fill-opacity:1" />
		</g>
	</g>
</g>
<g
   id="g3847"
   style="display:inline">
</g>
<g
   id="g3849">
</g>
<g
   id="g3851">
</g>
<g
   id="g3853">
</g>
<g
   id="g3855">
</g>
<g
   id="g3857">
</g>
<g
   id="g3859">
</g>
<g
   id="g3861">
</g>
<g
   id="g3863">
</g>
<g
   id="g3865">
</g>
<g
   id="g3867">
</g>
<g
   id="g3869">
</g>
<g
   id="g3871">
</g>
<g
   id="g3873">
</g>
<g
   id="g3875">
</g>
</svg>